<?xml version="1.0" encoding="UTF-8"?>
<svg version="1.1" viewBox="0 0 1280 1280" width="1280" height="1280" xmlns="http://www.w3.org/2000/svg">
<path transform="translate(0)" d="m0 0h1280v1280h-1280z" fill="#1F1F1E"/>
<path transform="translate(632,62)" d="m0 0h2l9 17 13 17 14 19 5 12 2 8v14l-4 22-6 23 9-3 13-5 23-5h8l11 3 9 6 6 9 3 11-1 21-3 14-6 16-10 18-2 8 1 13-1 2-4-2-11-10-8-14-7-19-5-6-6-2h-11l-7 4-5 10-2 8v20h9l6 3 3 4 1 7 1 5 19 9 14 4h20l16-5 14-7 14-10 11-8 7-8 5-6h2l2-4 4-4-1-5-3-6-1-5v-13l5-9 5-3 4-3 1-11 4-8 4-3h11l6 4 3 4 1 3v7l-3 7 1 7 2 3 1 8-1 10-6 10-9 6 2 18 7 21 7 13 9 12 10 8 9 5 18 6 12 1h8l12-4v-2l-5-2-2-2v-5l6-6 9 1 5 2h3l7-11 4-11v-10l-3-6-5-4-8-2-9 3-7 4-8 7-13 6-13 3h-3l2-4 6-9 3-37 5-17 8-16 9-9 10-4h9l10 3 9 6 8 7 11 14 6 9 2 1 3-14 7-22 7-13 10-11 10-6 19-7 18-8 11-7h2l-3 9-10 24-16 32-13 22-15 26-11 18-29 43-12 21-8 16-9 19-3 9 2 7-6 12-3 14v26l2 10 4 13 1 5v35l-2 1-17-8-19-5-19-3-32-3-57-3-45-1h-232l-45 1-57 3-40 5-19 3-18 5-9 5h-3v-36l6-4 4-6 3-16v-21l-3-19-2-5-8-2-1-5v-10l-6-16-14-29-15-23-10-15-12-19-13-21-17-29-10-17-14-27-8-16-8-22v-3l5 2 5 4 16 8 24 9 11 7 8 9 8 16 8 27 1 6h3l2-5 8-11 12-13 9-7 11-4h9l10 4 8 7 7 10 6 15 3 15 1 24 3 12 5 5v2l-6-1-25-9-18-10-5-1-9 3-4 5-1 3v9l4 13 7 11 9-2 7-1 6 5 1 6-5 4-2 2 12 3 10 1 19-3 14-6 12-9 8-9 7-11 8-19 3-17v-11l-10-7-5-7-2-9 1-6 4-8-1-7-3-7 1-7 3-5 5-4 2-1h10l6 5 3 8v10l5 2 6 5 4 7 1 10-4 11-2 5 8 11 7 8 8 7 11 10 18 11 15 6 8 2h19l15-4 12-5 9-5v-9l3-6 7-3 8-1 1-2v-18l-5-16-5-4-3-1h-13l-6 3h-2l-2 5-4 11-4 10-6 10-12 11-3 3-1-1v-16l-4-11-8-14-7-19-2-8v-28l4-10 7-8 10-5 4-1h15l19 5 20 8h2l-8-32-2-14v-13l5-17 12-16 7-10 10-17z" fill="#fff"/>
<path transform="translate(280,702)" d="m0 0h11l13 4 9 7 7 8 4 9 1 5v13l-3 10-6 9-9 8-8 4-9 2-14-1-12-5 5 18 10 19 12 14 7 7 16 11 19 9 20 5 8 1h25l20-4 18-7 14-8 11-8 15-15 9-13 11-17 10-14 12-12 14-9 15-6 10-2h26l14 3 15 6 15 10 5 4v2l4 2 8 9 4 4 2-5 10-11 14-11 16-8 14-4 6-1h24l15 3 12 5 12 7 13 12 8 10 12 19 8 12 9 11 8 8 17 12 16 8 15 5 16 3h27l16-3 18-6 17-9 13-10 9-9 10-14 8-16 4-13v-3l-13 4-11 1-10-2-10-5-8-7-5-8-3-10v-16l4-11 8-10 9-6 8-3 4-1h11l11 3 11 7 9 9 7 12 5 16v26l-4 20-7 19-11 20-10 14-8 10-11 12-11 9-15 12-13 8-24 13-16 7-19 6-25 5-24 3-17 1h-22l-40-2-43-7-19-5-16-6-16-8-11-8-10-9-5-5-5 5-9 8-16 11-17 8-21 7-27 5-28 4-12 1-31 1h-19l-19-1-27-4-24-6-20-7-18-8-19-11-14-10-13-11-7-6-7-8-12-14-11-15-7-12-10-25-5-23v-19l3-14 8-16 11-12 9-6 7-3z" fill="#fff"/>
<path transform="translate(458 1e3)" d="m0 0h8l17 8 16 10 24 14 27 16 29 17 25 15 22 13 7 4 6-2 11-6 59-35 50-30 24-14 16-9 3-1h10l4 5 1 4v200l-6 9-11-3-13-5-24-14-44-26-27-16-29-17-22-13-6-3-5 2-18 10-27 16-24 14-22 13-51 30-18 10-11 3-5-5-2-3-1-14v-177l1-14 4-5z" fill="#fff"/>
<path transform="translate(599,364)" d="m0 0h69l34 1 50 4 46 6 35 8 3 2-39-2-32-2-63-2h-143l-57 2-65 4h-7l4-2 25-6 32-5 36-4 41-3z" fill="#1F1F1E"/>
<path transform="translate(634,402)" d="m0 0h15l10 4 9 8 4 6 3 9v16l-5 12-9 9-8 4-7 2h-12l-10-4-8-7-4-5-4-9-1-4v-13l3-10 7-9 9-6z" fill="#1F1F1E"/>
<path transform="translate(800,411)" d="m0 0h14l10 6 7 10 3 8 1 6v12l-4 12-6 8-9 6-6 2h-10l-8-3-8-7-4-5-4-9-1-4v-14l4-12 6-8 5-4z" fill="#1F1F1E"/>
<path transform="translate(464,410)" d="m0 0h12l10 5 7 7 5 11 1 3v18l-5 12-7 8-10 5-4 1h-8l-9-3-9-8-4-6-3-9v-19l5-12 5-6 8-5z" fill="#1F1F1E"/>
<path transform="translate(483,1043)" d="m0 0 10 3 23 13 17 10 26 15 27 16 13 8 1 2v9l-7 6-9-3-23-13-24-14-26-15-27-16-8-6-1-1v-7l5-6z" fill="#1F1F1E"/>
<path transform="translate(723,425)" d="m0 0 13 1 4 4 3 9-1 7-4 6-4 3h-14l-5-5-2-6v-7l4-8z" fill="#1F1F1E"/>
<path transform="translate(549,426)" d="m0 0h13l6 5 3 7-1 7-4 8-3 2h-15l-5-6-2-5v-8l4-8z" fill="#1F1F1E"/>
<path transform="translate(394,439)" d="m0 0h11l5 8v13l-3 5-4 2-9-1-5-7-1-3v-8l3-6z" fill="#1F1F1E"/>
<path transform="translate(874,439)" d="m0 0h9l5 5 1 3v9l-3 8-3 3-11-1-4-5-1-4v-9l4-7z" fill="#1F1F1E"/>
</svg>
